<svg width="720" height="920" viewBox="0 0 720 920" xmlns="http://www.w3.org/2000/svg">
<rect width="720" height="920" fill="#fff"/>
<text x="60" y="80" font-size="44" font-family="Arial" font-weight="700">QRIS</text>
<text x="60" y="130" font-size="22" font-family="Arial">MADHAYANA MARKET, DIGITAL &amp; KREATIF</text>
<text x="60" y="165" font-size="20" font-family="Arial">NMID: ID1025461902120</text>
<rect x="90" y="220" width="540" height="540" fill="#fff" stroke="#111" stroke-width="4"/>
<g fill="#111">
<rect x="100" y="230" width="14" height="14"/>
<rect x="120" y="230" width="14" height="14"/>
<rect x="260" y="230" width="14" height="14"/>
<rect x="320" y="230" width="14" height="14"/>
<rect x="360" y="230" width="14" height="14"/>
<rect x="380" y="230" width="14" height="14"/>
<rect x="420" y="230" width="14" height="14"/>
<rect x="440" y="230" width="14" height="14"/>
<rect x="500" y="230" width="14" height="14"/>
<rect x="580" y="230" width="14" height="14"/>
<rect x="100" y="250" width="14" height="14"/>
<rect x="140" y="250" width="14" height="14"/>
<rect x="160" y="250" width="14" height="14"/>
<rect x="200" y="250" width="14" height="14"/>
<rect x="220" y="250" width="14" height="14"/>
<rect x="260" y="250" width="14" height="14"/>
<rect x="280" y="250" width="14" height="14"/>
<rect x="420" y="250" width="14" height="14"/>
<rect x="480" y="250" width="14" height="14"/>
<rect x="520" y="250" width="14" height="14"/>
<rect x="540" y="250" width="14" height="14"/>
<rect x="580" y="250" width="14" height="14"/>
<rect x="600" y="250" width="14" height="14"/>
<rect x="120" y="270" width="14" height="14"/>
<rect x="200" y="270" width="14" height="14"/>
<rect x="260" y="270" width="14" height="14"/>
<rect x="300" y="270" width="14" height="14"/>
<rect x="320" y="270" width="14" height="14"/>
<rect x="360" y="270" width="14" height="14"/>
<rect x="380" y="270" width="14" height="14"/>
<rect x="420" y="270" width="14" height="14"/>
<rect x="440" y="270" width="14" height="14"/>
<rect x="580" y="270" width="14" height="14"/>
<rect x="100" y="290" width="14" height="14"/>
<rect x="140" y="290" width="14" height="14"/>
<rect x="160" y="290" width="14" height="14"/>
<rect x="200" y="290" width="14" height="14"/>
<rect x="220" y="290" width="14" height="14"/>
<rect x="280" y="290" width="14" height="14"/>
<rect x="360" y="290" width="14" height="14"/>
<rect x="420" y="290" width="14" height="14"/>
<rect x="460" y="290" width="14" height="14"/>
<rect x="480" y="290" width="14" height="14"/>
<rect x="520" y="290" width="14" height="14"/>
<rect x="540" y="290" width="14" height="14"/>
<rect x="580" y="290" width="14" height="14"/>
<rect x="600" y="290" width="14" height="14"/>
<rect x="200" y="310" width="14" height="14"/>
<rect x="260" y="310" width="14" height="14"/>
<rect x="300" y="310" width="14" height="14"/>
<rect x="320" y="310" width="14" height="14"/>
<rect x="360" y="310" width="14" height="14"/>
<rect x="380" y="310" width="14" height="14"/>
<rect x="440" y="310" width="14" height="14"/>
<rect x="520" y="310" width="14" height="14"/>
<rect x="580" y="310" width="14" height="14"/>
<rect x="620" y="310" width="14" height="14"/>
<rect x="100" y="330" width="14" height="14"/>
<rect x="140" y="330" width="14" height="14"/>
<rect x="160" y="330" width="14" height="14"/>
<rect x="200" y="330" width="14" height="14"/>
<rect x="220" y="330" width="14" height="14"/>
<rect x="360" y="330" width="14" height="14"/>
<rect x="420" y="330" width="14" height="14"/>
<rect x="460" y="330" width="14" height="14"/>
<rect x="480" y="330" width="14" height="14"/>
<rect x="520" y="330" width="14" height="14"/>
<rect x="540" y="330" width="14" height="14"/>
<rect x="600" y="330" width="14" height="14"/>
<rect x="140" y="350" width="14" height="14"/>
<rect x="200" y="350" width="14" height="14"/>
<rect x="240" y="350" width="14" height="14"/>
<rect x="260" y="350" width="14" height="14"/>
<rect x="300" y="350" width="14" height="14"/>
<rect x="320" y="350" width="14" height="14"/>
<rect x="360" y="350" width="14" height="14"/>
<rect x="380" y="350" width="14" height="14"/>
<rect x="520" y="350" width="14" height="14"/>
<rect x="580" y="350" width="14" height="14"/>
<rect x="620" y="350" width="14" height="14"/>
<rect x="100" y="370" width="14" height="14"/>
<rect x="140" y="370" width="14" height="14"/>
<rect x="160" y="370" width="14" height="14"/>
<rect x="220" y="370" width="14" height="14"/>
<rect x="300" y="370" width="14" height="14"/>
<rect x="360" y="370" width="14" height="14"/>
<rect x="400" y="370" width="14" height="14"/>
<rect x="420" y="370" width="14" height="14"/>
<rect x="460" y="370" width="14" height="14"/>
<rect x="480" y="370" width="14" height="14"/>
<rect x="520" y="370" width="14" height="14"/>
<rect x="540" y="370" width="14" height="14"/>
<rect x="140" y="390" width="14" height="14"/>
<rect x="200" y="390" width="14" height="14"/>
<rect x="240" y="390" width="14" height="14"/>
<rect x="260" y="390" width="14" height="14"/>
<rect x="300" y="390" width="14" height="14"/>
<rect x="320" y="390" width="14" height="14"/>
<rect x="380" y="390" width="14" height="14"/>
<rect x="460" y="390" width="14" height="14"/>
<rect x="520" y="390" width="14" height="14"/>
<rect x="560" y="390" width="14" height="14"/>
<rect x="580" y="390" width="14" height="14"/>
<rect x="620" y="390" width="14" height="14"/>
<rect x="100" y="410" width="14" height="14"/>
<rect x="140" y="410" width="14" height="14"/>
<rect x="160" y="410" width="14" height="14"/>
<rect x="300" y="410" width="14" height="14"/>
<rect x="360" y="410" width="14" height="14"/>
<rect x="400" y="410" width="14" height="14"/>
<rect x="420" y="410" width="14" height="14"/>
<rect x="460" y="410" width="14" height="14"/>
<rect x="480" y="410" width="14" height="14"/>
<rect x="540" y="410" width="14" height="14"/>
<rect x="620" y="410" width="14" height="14"/>
<rect x="140" y="430" width="14" height="14"/>
<rect x="180" y="430" width="14" height="14"/>
<rect x="200" y="430" width="14" height="14"/>
<rect x="240" y="430" width="14" height="14"/>
<rect x="260" y="430" width="14" height="14"/>
<rect x="300" y="430" width="14" height="14"/>
<rect x="320" y="430" width="14" height="14"/>
<rect x="460" y="430" width="14" height="14"/>
<rect x="520" y="430" width="14" height="14"/>
<rect x="560" y="430" width="14" height="14"/>
<rect x="580" y="430" width="14" height="14"/>
<rect x="620" y="430" width="14" height="14"/>
<rect x="100" y="450" width="14" height="14"/>
<rect x="160" y="450" width="14" height="14"/>
<rect x="240" y="450" width="14" height="14"/>
<rect x="300" y="450" width="14" height="14"/>
<rect x="340" y="450" width="14" height="14"/>
<rect x="360" y="450" width="14" height="14"/>
<rect x="400" y="450" width="14" height="14"/>
<rect x="420" y="450" width="14" height="14"/>
<rect x="460" y="450" width="14" height="14"/>
<rect x="480" y="450" width="14" height="14"/>
<rect x="620" y="450" width="14" height="14"/>
<rect x="140" y="470" width="14" height="14"/>
<rect x="180" y="470" width="14" height="14"/>
<rect x="200" y="470" width="14" height="14"/>
<rect x="240" y="470" width="14" height="14"/>
<rect x="260" y="470" width="14" height="14"/>
<rect x="320" y="470" width="14" height="14"/>
<rect x="400" y="470" width="14" height="14"/>
<rect x="460" y="470" width="14" height="14"/>
<rect x="500" y="470" width="14" height="14"/>
<rect x="520" y="470" width="14" height="14"/>
<rect x="560" y="470" width="14" height="14"/>
<rect x="580" y="470" width="14" height="14"/>
<rect x="620" y="470" width="14" height="14"/>
<rect x="100" y="490" width="14" height="14"/>
<rect x="240" y="490" width="14" height="14"/>
<rect x="300" y="490" width="14" height="14"/>
<rect x="340" y="490" width="14" height="14"/>
<rect x="360" y="490" width="14" height="14"/>
<rect x="400" y="490" width="14" height="14"/>
<rect x="420" y="490" width="14" height="14"/>
<rect x="480" y="490" width="14" height="14"/>
<rect x="560" y="490" width="14" height="14"/>
<rect x="620" y="490" width="14" height="14"/>
<rect x="120" y="510" width="14" height="14"/>
<rect x="140" y="510" width="14" height="14"/>
<rect x="180" y="510" width="14" height="14"/>
<rect x="200" y="510" width="14" height="14"/>
<rect x="240" y="510" width="14" height="14"/>
<rect x="260" y="510" width="14" height="14"/>
<rect x="400" y="510" width="14" height="14"/>
<rect x="460" y="510" width="14" height="14"/>
<rect x="500" y="510" width="14" height="14"/>
<rect x="520" y="510" width="14" height="14"/>
<rect x="560" y="510" width="14" height="14"/>
<rect x="580" y="510" width="14" height="14"/>
<rect x="100" y="530" width="14" height="14"/>
<rect x="180" y="530" width="14" height="14"/>
<rect x="240" y="530" width="14" height="14"/>
<rect x="280" y="530" width="14" height="14"/>
<rect x="300" y="530" width="14" height="14"/>
<rect x="340" y="530" width="14" height="14"/>
<rect x="360" y="530" width="14" height="14"/>
<rect x="400" y="530" width="14" height="14"/>
<rect x="420" y="530" width="14" height="14"/>
<rect x="560" y="530" width="14" height="14"/>
<rect x="620" y="530" width="14" height="14"/>
<rect x="120" y="550" width="14" height="14"/>
<rect x="140" y="550" width="14" height="14"/>
<rect x="180" y="550" width="14" height="14"/>
<rect x="200" y="550" width="14" height="14"/>
<rect x="260" y="550" width="14" height="14"/>
<rect x="340" y="550" width="14" height="14"/>
<rect x="400" y="550" width="14" height="14"/>
<rect x="440" y="550" width="14" height="14"/>
<rect x="460" y="550" width="14" height="14"/>
<rect x="500" y="550" width="14" height="14"/>
<rect x="520" y="550" width="14" height="14"/>
<rect x="560" y="550" width="14" height="14"/>
<rect x="580" y="550" width="14" height="14"/>
<rect x="180" y="570" width="14" height="14"/>
<rect x="240" y="570" width="14" height="14"/>
<rect x="280" y="570" width="14" height="14"/>
<rect x="300" y="570" width="14" height="14"/>
<rect x="340" y="570" width="14" height="14"/>
<rect x="360" y="570" width="14" height="14"/>
<rect x="420" y="570" width="14" height="14"/>
<rect x="500" y="570" width="14" height="14"/>
<rect x="560" y="570" width="14" height="14"/>
<rect x="600" y="570" width="14" height="14"/>
<rect x="620" y="570" width="14" height="14"/>
<rect x="120" y="590" width="14" height="14"/>
<rect x="140" y="590" width="14" height="14"/>
<rect x="180" y="590" width="14" height="14"/>
<rect x="200" y="590" width="14" height="14"/>
<rect x="340" y="590" width="14" height="14"/>
<rect x="400" y="590" width="14" height="14"/>
<rect x="440" y="590" width="14" height="14"/>
<rect x="460" y="590" width="14" height="14"/>
<rect x="500" y="590" width="14" height="14"/>
<rect x="520" y="590" width="14" height="14"/>
<rect x="580" y="590" width="14" height="14"/>
<rect x="120" y="610" width="14" height="14"/>
<rect x="180" y="610" width="14" height="14"/>
<rect x="220" y="610" width="14" height="14"/>
<rect x="240" y="610" width="14" height="14"/>
<rect x="280" y="610" width="14" height="14"/>
<rect x="300" y="610" width="14" height="14"/>
<rect x="340" y="610" width="14" height="14"/>
<rect x="360" y="610" width="14" height="14"/>
<rect x="500" y="610" width="14" height="14"/>
<rect x="560" y="610" width="14" height="14"/>
<rect x="600" y="610" width="14" height="14"/>
<rect x="620" y="610" width="14" height="14"/>
<rect x="120" y="630" width="14" height="14"/>
<rect x="140" y="630" width="14" height="14"/>
<rect x="200" y="630" width="14" height="14"/>
<rect x="280" y="630" width="14" height="14"/>
<rect x="340" y="630" width="14" height="14"/>
<rect x="380" y="630" width="14" height="14"/>
<rect x="400" y="630" width="14" height="14"/>
<rect x="440" y="630" width="14" height="14"/>
<rect x="460" y="630" width="14" height="14"/>
<rect x="500" y="630" width="14" height="14"/>
<rect x="520" y="630" width="14" height="14"/>
<rect x="120" y="650" width="14" height="14"/>
<rect x="180" y="650" width="14" height="14"/>
<rect x="220" y="650" width="14" height="14"/>
<rect x="240" y="650" width="14" height="14"/>
<rect x="280" y="650" width="14" height="14"/>
<rect x="300" y="650" width="14" height="14"/>
<rect x="360" y="650" width="14" height="14"/>
<rect x="440" y="650" width="14" height="14"/>
<rect x="500" y="650" width="14" height="14"/>
<rect x="540" y="650" width="14" height="14"/>
<rect x="560" y="650" width="14" height="14"/>
<rect x="600" y="650" width="14" height="14"/>
<rect x="620" y="650" width="14" height="14"/>
<rect x="120" y="670" width="14" height="14"/>
<rect x="140" y="670" width="14" height="14"/>
<rect x="280" y="670" width="14" height="14"/>
<rect x="340" y="670" width="14" height="14"/>
<rect x="380" y="670" width="14" height="14"/>
<rect x="400" y="670" width="14" height="14"/>
<rect x="440" y="670" width="14" height="14"/>
<rect x="460" y="670" width="14" height="14"/>
<rect x="520" y="670" width="14" height="14"/>
<rect x="600" y="670" width="14" height="14"/>
<rect x="120" y="690" width="14" height="14"/>
<rect x="160" y="690" width="14" height="14"/>
<rect x="180" y="690" width="14" height="14"/>
<rect x="220" y="690" width="14" height="14"/>
<rect x="240" y="690" width="14" height="14"/>
<rect x="280" y="690" width="14" height="14"/>
<rect x="300" y="690" width="14" height="14"/>
<rect x="440" y="690" width="14" height="14"/>
<rect x="500" y="690" width="14" height="14"/>
<rect x="540" y="690" width="14" height="14"/>
<rect x="560" y="690" width="14" height="14"/>
<rect x="600" y="690" width="14" height="14"/>
<rect x="620" y="690" width="14" height="14"/>
<rect x="140" y="710" width="14" height="14"/>
<rect x="220" y="710" width="14" height="14"/>
<rect x="280" y="710" width="14" height="14"/>
<rect x="320" y="710" width="14" height="14"/>
<rect x="340" y="710" width="14" height="14"/>
<rect x="380" y="710" width="14" height="14"/>
<rect x="400" y="710" width="14" height="14"/>
<rect x="440" y="710" width="14" height="14"/>
<rect x="460" y="710" width="14" height="14"/>
<rect x="600" y="710" width="14" height="14"/>
<rect x="120" y="730" width="14" height="14"/>
<rect x="160" y="730" width="14" height="14"/>
<rect x="180" y="730" width="14" height="14"/>
<rect x="220" y="730" width="14" height="14"/>
<rect x="240" y="730" width="14" height="14"/>
<rect x="300" y="730" width="14" height="14"/>
<rect x="380" y="730" width="14" height="14"/>
<rect x="440" y="730" width="14" height="14"/>
<rect x="480" y="730" width="14" height="14"/>
<rect x="500" y="730" width="14" height="14"/>
<rect x="540" y="730" width="14" height="14"/>
<rect x="560" y="730" width="14" height="14"/>
<rect x="600" y="730" width="14" height="14"/>
<rect x="620" y="730" width="14" height="14"/>
<rect x="220" y="750" width="14" height="14"/>
<rect x="280" y="750" width="14" height="14"/>
<rect x="320" y="750" width="14" height="14"/>
<rect x="340" y="750" width="14" height="14"/>
<rect x="380" y="750" width="14" height="14"/>
<rect x="400" y="750" width="14" height="14"/>
<rect x="460" y="750" width="14" height="14"/>
<rect x="540" y="750" width="14" height="14"/>
<rect x="600" y="750" width="14" height="14"/>
</g>
<text x="175" y="820" font-size="28" font-family="Arial" font-weight="700">SATU QRIS UNTUK SEMUA</text>
<text x="110" y="865" font-size="18" font-family="Arial">Scan dengan DANA, GoPay, OVO, ShopeePay, atau mobile banking.</text>
</svg>